<?xml version="1.0" encoding="iso-8859-1"?>
<!-- Generator: Adobe Illustrator 16.0.0, SVG Export Plug-In . SVG Version: 6.00 Build 0)  -->
<!DOCTYPE svg PUBLIC "-//W3C//DTD SVG 1.1//EN" "http://www.w3.org/Graphics/SVG/1.1/DTD/svg11.dtd">
<svg version="1.1" id="Capa_1" xmlns="http://www.w3.org/2000/svg" xmlns:xlink="http://www.w3.org/1999/xlink" x="0px" y="0px"
	 width="74.394px" height="74.394px" viewBox="0 0 74.394 74.394" style="enable-background:new 0 0 74.394 74.394;"
	 xml:space="preserve">
<g>
	<path style="fill:#010002;" d="M61.86,33.15l-0.533-2.338l12.215-2.794l0.539,2.349L61.86,33.15z M67.297,15.079l-1.502-1.887
		l-9.786,7.811l1.501,1.882L67.297,15.079z M54.58,4.246l-2.175-1.043L46.978,14.47l2.164,1.043L54.58,4.246z M38.393,0h-2.4v12.518
		h2.4V0z M27.402,14.47L21.978,3.203l-2.175,1.043l5.437,11.268L27.402,14.47z M18.372,21.002L8.59,13.191l-1.507,1.887l9.789,7.811
		L18.372,21.002z M13.048,30.812L0.844,28.014l-0.531,2.354l12.212,2.783L13.048,30.812z M29.562,68.3l16.153-2.921
		c0.021-0.196,0.031-0.403,0.031-0.61v-1.564l-16.938,3.055C28.945,66.984,29.207,67.668,29.562,68.3z M28.65,64.706l17.096-3.086
		v-2.165L28.65,62.531V64.706z M45.394,67.025l-14.831,2.672c0.487,0.544,1.043,1,1.675,1.367v3.329h9.924v-3.329
		C43.674,70.153,44.834,68.724,45.394,67.025z M56.496,37.552c0-10.656-8.637-19.296-19.305-19.296
		c-10.648,0-19.296,8.64-19.296,19.296c0,7.591,4.381,14.146,10.747,17.305v6.101l17.104-3.087v-3.014
		C52.115,51.698,56.496,45.143,56.496,37.552z"/>
</g>
<g>
</g>
<g>
</g>
<g>
</g>
<g>
</g>
<g>
</g>
<g>
</g>
<g>
</g>
<g>
</g>
<g>
</g>
<g>
</g>
<g>
</g>
<g>
</g>
<g>
</g>
<g>
</g>
<g>
</g>
</svg>
